<?xml version="1.0" encoding="utf-8"?>
<svg version="1.1" id="Layer_1" xmlns="http://www.w3.org/2000/svg" xmlns:xlink="http://www.w3.org/1999/xlink" x="0px" y="0px" viewBox="0 0 102.63 20" style="enable-background:new 0 0 102.63 20;" xml:space="preserve">
	<style type="text/css">
		.st0{fill-rule:evenodd;clip-rule:evenodd;fill:#CE8013;}
		.st1{fill-rule:evenodd;clip-rule:evenodd;fill:#FFF;}
	</style>
	<g>
		<path class="st0" d="M43.4,15.86l0.36,0.63l0.39-0.22c1.79,2.27,4.57,3.73,7.68,3.73c3.12,0,5.89-1.46,7.68-3.73l0.41,0.24 l0.36-0.61l-3.94-2.28l-0.41,0.59l0.38,0.21c-1.12,1.19-2.72,1.94-4.49,1.94c-1.76,0-3.34-0.74-4.47-1.92l0.37-0.21l-0.33-0.62 L43.4,15.86z"/>
		<path class="st0" d="M42.74,14.73l0.32,0.56L47,13.07l-0.32-0.56l-0.45,0.26c-0.35-0.78-0.55-1.64-0.55-2.55 c0-3.01,2.16-5.52,5.02-6.05v0.32h0.64v-0.4V0.44V0h-0.64v0.49c-4.87,0.57-8.64,4.7-8.64,9.72c0,1.56,0.36,3.03,1.01,4.34 L42.74,14.73z"/>
		<path class="st0" d="M52.73,4.12c2.98,0.43,5.27,3,5.27,6.09c0,0.9-0.19,1.75-0.54,2.52l-0.38-0.22l-0.32,0.56l3.87,2.3l0.35-0.6 l-0.37-0.22c0.65-1.31,1.01-2.78,1.01-4.34c0-5.1-3.91-9.29-8.89-9.74V0.03h-0.64v0.4v3.63v0.45h0.64V4.12z"/>
		<path class="st1" d="M32.38,14.6h1.41c0.95,0,1.62-0.13,2.02-0.38c0.4-0.26,0.59-0.68,0.59-1.27c0-0.66-0.18-1.12-0.54-1.38 c-0.36-0.26-1.03-0.39-2.01-0.39h-1.47V14.6L32.38,14.6z M28.65,17.81V2.11h4.04c1.66,0,2.82,0.06,3.49,0.17 c0.66,0.11,1.23,0.31,1.7,0.59c0.54,0.32,0.96,0.75,1.24,1.29c0.29,0.54,0.43,1.16,0.43,1.87c0,0.89-0.21,1.6-0.64,2.13 c-0.43,0.52-1.11,0.92-2.04,1.2c1.04,0.08,1.87,0.48,2.45,1.17c0.59,0.7,0.89,1.63,0.89,2.8c0,0.83-0.16,1.57-0.5,2.21 c-0.33,0.64-0.81,1.13-1.42,1.48c-0.5,0.29-1.12,0.49-1.86,0.61c-0.74,0.12-1.94,0.18-3.62,0.18H28.65L28.65,17.81z M32.38,8.39 h0.8c0.99,0,1.67-0.12,2.04-0.35c0.37-0.23,0.55-0.64,0.55-1.21c0-0.59-0.17-1.01-0.52-1.25c-0.34-0.24-1.02-0.36-2.02-0.36h-0.87 V8.39z"/>
		<path class="st1" d="M12.49,2.11h4v7.64c0,1.12,0.03,1.93,0.08,2.42c0.05,0.49,0.14,0.9,0.27,1.23c0.15,0.4,0.42,0.71,0.8,0.92 c0.38,0.21,0.85,0.31,1.4,0.31c0.55,0,1.01-0.11,1.39-0.31c0.38-0.21,0.65-0.52,0.81-0.92c0.13-0.33,0.22-0.74,0.27-1.23 c0.05-0.49,0.08-1.3,0.08-2.42V8.67V2.11h4v8.3c0,1.72-0.1,2.99-0.29,3.81c-0.2,0.82-0.52,1.52-0.99,2.1 c-0.5,0.63-1.19,1.11-2.07,1.43c-0.88,0.32-1.94,0.48-3.2,0.48c-1.26,0-2.33-0.16-3.21-0.48c-0.88-0.32-1.57-0.8-2.08-1.43 c-0.46-0.58-0.78-1.28-0.98-2.1c-0.2-0.82-0.3-2.09-0.3-3.81V8.78V2.11z"/>
		<polygon class="st1" points="3.3,17.81 3.3,5.82 0,5.82 0,2.11 10.62,2.11 10.62,5.82 7.32,5.82 7.32,17.81"/>
		<path class="st1" d="M94.51,9.53h0.76c0.89,0,1.54-0.16,1.94-0.47c0.41-0.31,0.61-0.81,0.61-1.48c0-0.79-0.19-1.35-0.57-1.68 c-0.38-0.33-1.02-0.5-1.92-0.5h-0.82V9.53L94.51,9.53z M90.65,17.81V2.11h4.31c1.68,0,2.86,0.08,3.52,0.24 c0.66,0.16,1.24,0.43,1.72,0.81c0.54,0.43,0.96,0.98,1.25,1.64c0.29,0.67,0.44,1.4,0.44,2.2c0,1.22-0.29,2.2-0.86,2.96 c-0.58,0.76-1.42,1.27-2.52,1.52l4.12,6.33h-4.65l-3.46-6.15v6.15H90.65z"/>
		<path class="st1" d="M73.62,17.81l5.21-15.7h5.16l5.22,15.7h-4.1L84.35,15H78.5l-0.79,2.81H73.62L73.62,17.81z M79.39,11.94h4.1 l-2.05-6.99L79.39,11.94z"/>
		<polygon class="st1" points="64.27,17.81 64.27,2.11 73.52,2.11 73.52,5.55 68.28,5.55 68.28,8.28 73.22,8.28 73.22,11.64 68.28,11.64 68.28,17.81"/>
	</g>
</svg>